<svg xmlns="http://www.w3.org/2000/svg" width="125.793" height="72.616">
    <path data-name="Path 173" d="m121.76 152.456 3.939-21.664a5.782 5.782 0 1 0-11.377-2.069l-1.922 10.552a1.843 1.843 0 1 0 3.626.659l1.918-10.553a2.1 2.1 0 0 1 4.125.751l-3.935 21.668a2.1 2.1 0 0 1-2.063 1.721h-11.724l-.419-4.192h8.857a1.843 1.843 0 1 0 0-3.685h-9.226l-1.41-14.1a1.843 1.843 0 0 0-1.834-1.659H94.8l1.4-5.588a1.842 1.842 0 0 0-1.788-2.29h-13.79a1.842 1.842 0 0 0-1.788 2.29l1.4 5.588H69.557l2.928-7.32a1.843 1.843 0 0 0-1.711-2.527h-1.282a7.751 7.751 0 1 0-13.191 0h-1.282a1.843 1.843 0 0 0-1.711 2.527l2.928 7.32H45.562l1.4-5.588a1.842 1.842 0 0 0-1.788-2.29H31.386A1.842 1.842 0 0 0 29.6 124.3l1.4 5.588h-5.522a1.843 1.843 0 0 0-1.834 1.659l-1.41 14.1h-9.225a1.843 1.843 0 1 0 0 3.685h8.857l-.419 4.192H9.721a2.1 2.1 0 0 1-2.062-1.724L3.72 130.132a2.1 2.1 0 1 1 4.125-.75l1.918 10.552a1.843 1.843 0 1 0 3.626-.659l-1.918-10.552a5.782 5.782 0 1 0-11.377 2.069l3.939 21.664a5.762 5.762 0 0 0 1.839 3.274l-1.926 23.11a1.843 1.843 0 0 0 1.684 1.99c.052 0 .1.006.155.006a1.843 1.843 0 0 0 1.834-1.69l1.83-21.956c.091 0 .181.012.273.012h11.356l-1.378 13.73a1.843 1.843 0 0 0 1.834 2.026 9.36 9.36 0 0 0 6.285-2.347c.335-.255.644-.489.957-.7l.769 9.232a1.843 1.843 0 0 0 1.834 1.69c.051 0 .1 0 .155-.006a1.843 1.843 0 0 0 1.683-1.989l-.817-9.8a5.88 5.88 0 0 1 3.52 1.572 9.59 9.59 0 0 0 12.57 0 5.951 5.951 0 0 1 8.1 0 9.833 9.833 0 0 0 4.457 2.186v4.353H51.08a1.843 1.843 0 0 0 0 3.685h23.634a1.843 1.843 0 0 0 0-3.685h-9.975v-4.358a9.847 9.847 0 0 0 4.427-2.181 5.951 5.951 0 0 1 8.1 0 9.6 9.6 0 0 0 12.578 0 5.886 5.886 0 0 1 3.54-1.574l-.817 9.8a1.843 1.843 0 0 0 1.683 1.989c.052 0 .1.006.155.006a1.843 1.843 0 0 0 1.834-1.69l.769-9.227c.311.206.619.439.952.692a9.375 9.375 0 0 0 6.291 2.346 1.843 1.843 0 0 0 1.834-2.026l-1.373-13.73h11.356c.092 0 .182-.008.273-.012l1.83 21.956a1.843 1.843 0 0 0 1.834 1.69c.051 0 .1 0 .155-.006a1.843 1.843 0 0 0 1.683-1.989l-1.926-23.111a5.763 5.763 0 0 0 1.839-3.273zm-38.778-26.765h9.066L91 129.884h-6.97zm-24.151-9.72a4.066 4.066 0 1 1 4.066 4.066 4.07 4.07 0 0 1-4.066-4.066zm-1.091 7.751h10.313l-2.465 6.162h-5.383zm-24 1.969h9.066l-1.048 4.192h-6.97zm66.46 41.989a9.607 9.607 0 0 0-12.581 0 5.961 5.961 0 0 1-8.112 0 9.592 9.592 0 0 0-12.571 0 5.949 5.949 0 0 1-8.1 0 9.591 9.591 0 0 0-12.571 0 5.949 5.949 0 0 1-8.1 0 9.589 9.589 0 0 0-12.569 0 8.289 8.289 0 0 1-1.98 1.243l3.535-35.354h71.5l3.536 35.356a8.282 8.282 0 0 1-1.987-1.245z" transform="translate(0 -108.22)" style="fill:#feffff"/>
</svg>
