<svg xmlns="http://www.w3.org/2000/svg" width="372.096" height="423.004">
    <defs>
        <style>
            .cls-1{fill:#a8e7ef}.cls-2{fill:#70d9e6}.cls-3{fill:#3ad1e0}.cls-6{fill:#d4f2f6}.cls-7{fill:#31a7fb}.cls-8{fill:#bcea73}.cls-9{fill:#99d53b}.cls-12{fill:#82b732}
        </style>
    </defs>
    <g id="box_1_" data-name="box (1)" transform="translate(-30.81)">
        <g id="Group_92" data-name="Group 92" transform="translate(30.81)">
            <g id="Group_90" data-name="Group 90" transform="translate(0 16.916)">
                <g id="Group_83" data-name="Group 83" transform="translate(0 61.098)">
                    <g id="Group_78" data-name="Group 78" transform="translate(50.74 53.32)">
                        <path id="Path_301" data-name="Path 301" class="cls-1" d="M362.841 247.7v139.735a11.577 11.577 0 0 1-6.063 10.179l-123.727 67.037a11.577 11.577 0 0 1-11.03 0L98.284 397.613a11.587 11.587 0 0 1-6.054-10.179V247.7z" transform="translate(-92.226 -174.39)"/>
                        <g id="Group_77" data-name="Group 77" transform="translate(.004 73.312)">
                            <path id="Path_302" data-name="Path 302" class="cls-2" d="M391.308 278.134v47.543l-71.494 38.735a11.606 11.606 0 0 1-9.233.785L256 346.714v-68.58z" transform="translate(-120.697 -252.992)"/>
                            <path id="Path_303" data-name="Path 303" class="cls-2" d="M390.165 247.7v159.882l18.4-9.97a11.579 11.579 0 0 0 6.063-10.179V247.7z" transform="translate(-144.017 -247.702)"/>
                            <path id="Path_304" data-name="Path 304" class="cls-2" d="M227.536 247.7v218.36a11.586 11.586 0 0 1-5.525-1.4L98.284 397.612a11.6 11.6 0 0 1-6.054-10.179V247.7z" transform="translate(-92.23 -247.702)"/>
                        </g>
                        <path id="Path_305" data-name="Path 305" class="cls-3" d="M227.536 278.134v68.58l-54.59 18.486a11.585 11.585 0 0 1-9.223-.785L92.23 325.677v-47.543z" transform="translate(-92.226 -179.68)"/>
                        <path id="Path_306" data-name="Path 306" class="cls-3" d="M226.954 247.7v206.94l18.479 10.013a11.548 11.548 0 0 0 5.522 1.4V247.7z" transform="translate(-115.644 -174.39)"/>
                        <path id="Path_307" data-name="Path 307" d="M227.533 158.966 92.225 232.279l135.308 73.312 135.307-73.312z" transform="translate(-92.225 -158.966)" style="fill:#756f6f"/>
                        <path id="Path_308" data-name="Path 308" d="m340.86 255.962-107.467 58.221-107.467-58.221 70.4-38.144a77.814 77.814 0 0 1 74.142 0z" transform="translate(-98.083 -167.562)" style="fill:#5b5555"/>
                    </g>
                    <g id="Group_79" data-name="Group 79" transform="translate(186.048)">
                        <path id="Path_309" data-name="Path 309" class="cls-1" d="m434.351 171.678-43.042 49.382L256 147.748l44.747-51.335a5.79 5.79 0 0 1 7.122-1.286l124.876 67.658a5.79 5.79 0 0 1 1.606 8.894z" transform="translate(-256 -94.428)"/>
                        <path id="Path_310" data-name="Path 310" class="cls-2" d="M320.835 115.165a18.28 18.28 0 0 1-35.726 5.464l20.479-23.49a18.279 18.279 0 0 1 15.247 18.026z" transform="translate(-261.06 -94.899)"/>
                    </g>
                    <g id="Group_80" data-name="Group 80" transform="translate(6.271)">
                        <path id="Path_311" data-name="Path 311" class="cls-6" d="m39.826 171.678 43.042 49.382 135.309-73.313-44.747-51.334a5.79 5.79 0 0 0-7.122-1.286L41.433 162.785a5.789 5.789 0 0 0-1.607 8.893z" transform="translate(-38.401 -94.428)"/>
                        <path id="Path_312" data-name="Path 312" class="cls-1" d="M153.833 128.179a23.017 23.017 0 0 1-44.589 8.019l40.071-21.71a22.88 22.88 0 0 1 4.518 13.691z" transform="translate(-50.715 -97.915)"/>
                    </g>
                    <g id="Group_81" data-name="Group 81" transform="translate(0 126.632)">
                        <path id="Path_313" data-name="Path 313" class="cls-1" d="M34.743 263.552 81.55 247.7l135.308 73.313-54.585 18.487a11.575 11.575 0 0 1-9.228-.787l-119.2-64.584a5.789 5.789 0 0 1 .898-10.577z" transform="translate(-30.81 -247.702)"/>
                    </g>
                    <g id="Group_82" data-name="Group 82" transform="translate(186.048 126.632)">
                        <path id="Path_314" data-name="Path 314" class="cls-6" d="M438.115 263.552 391.308 247.7 256 321.015l54.584 18.485a11.575 11.575 0 0 0 9.228-.787l119.2-64.584a5.789 5.789 0 0 0-.9-10.573z" transform="translate(-256 -247.702)"/>
                    </g>
                </g>
                <path id="Path_315" data-name="Path 315" class="cls-7" d="M298.4 449.543a6.384 6.384 0 0 1-3.047-12L310 429.612a6.384 6.384 0 1 1 6.082 11.225l-14.643 7.934a6.354 6.354 0 0 1-3.039.772z" transform="translate(-76.212 -91.457)"/>
                <g id="Group_89" data-name="Group 89" transform="translate(63.361)">
                    <g id="Group_87" data-name="Group 87">
                        <g id="Group_86" data-name="Group 86">
                            <g id="Group_84" data-name="Group 84" transform="translate(0 45.335)">
                                <path id="Path_316" data-name="Path 316" class="cls-8" d="M107.5 98.361a23.013 23.013 0 1 1 23.013 23.013A23.013 23.013 0 0 1 107.5 98.361" transform="translate(-107.501 -75.348)"/>
                                <path id="Path_317" data-name="Path 317" class="cls-9" d="M121.228 118.193a20.361 20.361 0 0 0 .011-39.668 23.018 23.018 0 1 1-.011 39.668" transform="translate(-109.887 -75.348)"/>
                            </g>
                            <g id="Group_85" data-name="Group 85" transform="translate(45.659)">
                                <path id="Path_318" data-name="Path 318" class="cls-8" d="M193.225 22.345a6.385 6.385 0 0 0-9.028 0l-5.266 5.266-5.266-5.266a6.384 6.384 0 0 0-9.029 9.028l5.266 5.266-5.266 5.261a6.384 6.384 0 0 0 9.029 9.028l5.266-5.266 5.266 5.266a6.384 6.384 0 0 0 9.029-9.028l-5.266-5.266 5.266-5.266a6.384 6.384 0 0 0 0-9.028z" transform="translate(-162.766 -20.475)"/>
                                <path id="Path_319" data-name="Path 319" class="cls-8" d="m416.7 87.251 5.266-5.266a6.384 6.384 0 0 0-9.029-9.028l-5.266 5.266-5.266-5.266a6.384 6.384 0 0 0-9.029 9.028l5.266 5.266-5.266 5.266a6.384 6.384 0 0 0 9.028 9.028l5.266-5.266 5.266 5.266a6.384 6.384 0 1 0 9.029-9.028z" transform="translate(-202.526 -29.273)"/>
                            </g>
                        </g>
                    </g>
                    <g id="Group_88" data-name="Group 88" transform="translate(145.904 44.806)">
                        <circle id="Ellipse_59" data-name="Ellipse 59" cx="18.279" cy="18.279" r="18.279" transform="translate(0 .001)" style="fill:#64b9fc"/>
                        <path id="Path_320" data-name="Path 320" class="cls-7" d="M322.555 92.986a18.284 18.284 0 0 1-18.278 18.286 18.1 18.1 0 0 1-9.272-2.531 16.173 16.173 0 0 0 .008-31.509 18.276 18.276 0 0 1 27.542 15.754z" transform="translate(-285.997 -74.708)"/>
                    </g>
                </g>
            </g>
            <g id="Group_91" data-name="Group 91" transform="translate(243.204)">
                <circle id="Ellipse_60" data-name="Ellipse 60" class="cls-1" cx="21.427" cy="21.427" r="21.427"/>
                <path id="Path_321" data-name="Path 321" class="cls-2" d="M370.256 21.425a21.418 21.418 0 0 1-32.294 18.468 18.958 18.958 0 0 0 .01-36.935 21.423 21.423 0 0 1 32.284 18.468z" transform="translate(-327.403)"/>
            </g>
        </g>
        <g id="Group_96" data-name="Group 96" transform="translate(158.412 167.227)">
            <path id="Path_322" data-name="Path 322" d="M302.149 260.857a58.176 58.176 0 0 1-4.8 23.218L243.7 313.141l-53.646-29.066a58.45 58.45 0 1 1 112.091-23.218z" transform="translate(-185.258 -202.41)" style="fill:#a3e440"/>
            <path id="Path_323" data-name="Path 323" class="cls-9" d="M312.025 260.858a58.312 58.312 0 0 1-4.792 23.218l-37.763 20.462a58.447 58.447 0 0 0-27.346-100.993 58.492 58.492 0 0 1 69.9 57.314z" transform="translate(-195.142 -202.412)"/>
            <g id="Group_95" data-name="Group 95" transform="translate(24.261 46.235)">
                <path id="Path_324" data-name="Path 324" class="cls-12" d="M263.543 298.34a6.359 6.359 0 0 1-4.141-1.528 12.734 12.734 0 0 0-8.149-2.791h-.042a12.724 12.724 0 0 0-8.124 2.742 6.383 6.383 0 0 1-8.23-9.76 25.308 25.308 0 0 1 16.353-5.749h.081a25.319 25.319 0 0 1 16.4 5.847 6.384 6.384 0 0 1-4.149 11.239z" transform="translate(-217.746 -262.349)"/>
                <g id="Group_94" data-name="Group 94">
                    <g id="Group_93" data-name="Group 93">
                        <path id="Path_325" data-name="Path 325" class="cls-12" d="M221.038 271.14h-.045a6.409 6.409 0 0 1-6.369-6.428 6.338 6.338 0 0 1 6.4-6.339h.059a6.383 6.383 0 0 1-.043 12.766z" transform="translate(-214.624 -258.372)"/>
                    </g>
                </g>
            </g>
        </g>
        <path id="Path_326" data-name="Path 326" class="cls-12" d="M288.329 271.14h-.045a6.384 6.384 0 0 1-.017-12.767h.1a6.383 6.383 0 0 1-.043 12.766z" transform="translate(-43.647 -44.91)"/>
    </g>
</svg>
