<svg xmlns="http://www.w3.org/2000/svg" width="125.366" height="107.737">
    <defs>
        <style>
            .cls-1{fill:#fff}
        </style>
    </defs>
    <g id="meeting-room" transform="translate(0 -36)">
        <g id="Group_31" data-name="Group 31" transform="translate(49.828 36)">
            <g id="Group_30" data-name="Group 30">
                <path id="Path_170" data-name="Path 170" class="cls-1" d="M216.355 36a12.855 12.855 0 1 0 12.855 12.855A12.87 12.87 0 0 0 216.355 36zm0 22.037a9.182 9.182 0 1 1 9.182-9.182 9.192 9.192 0 0 1-9.182 9.182z" transform="translate(-203.5 -36)"/>
            </g>
        </g>
        <g id="Group_33" data-name="Group 33" transform="translate(60.847 41.632)">
            <g id="Group_32" data-name="Group 32">
                <path id="Path_171" data-name="Path 171" class="cls-1" d="M255.723 64.387h-3.55v-3.55a1.836 1.836 0 1 0-3.673 0v5.387a1.836 1.836 0 0 0 1.836 1.836h5.387a1.836 1.836 0 0 0 0-3.673z" transform="translate(-248.5 -59)"/>
            </g>
        </g>
        <g id="Group_35" data-name="Group 35" transform="translate(0 83.64)">
            <g id="Group_34" data-name="Group 34">
                <path id="Path_172" data-name="Path 172" class="cls-1" d="M119.857 279.64h-.791v-3.754a1.836 1.836 0 0 0-3.673 0v3.754H86.148a1.836 1.836 0 1 0 0 3.673h33.709a1.836 1.836 0 0 1 0 3.673H5.509a1.836 1.836 0 0 1 0-3.673h72.8a1.836 1.836 0 1 0 0-3.673h-6.444v-3.387a1.836 1.836 0 0 0-1.836-1.836H64.52v-2.483h7.77a4.846 4.846 0 0 0 4.84-4.84v-1.338a4.843 4.843 0 0 0-2.824-4.394 6.693 6.693 0 0 0 .987-3.506v-1.476h40.1v11.63a1.836 1.836 0 0 0 3.673 0v-11.631h.791a5.515 5.515 0 0 0 5.509-5.509 5.516 5.516 0 0 0-5.509-5.509h-10.039v-6.734a7.967 7.967 0 0 0-7.958-7.958h-9.3a7.967 7.967 0 0 0-7.958 7.958v6.734h-9.3v-6.841a7.967 7.967 0 0 0-7.958-7.958h-9.3a7.967 7.967 0 0 0-7.958 7.958v6.841H39.721v-6.734a7.967 7.967 0 0 0-7.958-7.958h-9.3a7.967 7.967 0 0 0-7.958 7.958v6.734H5.509A5.515 5.515 0 0 0 0 250.87a5.516 5.516 0 0 0 5.509 5.509H6.3v3.877a1.836 1.836 0 0 0 3.673 0v-3.877h40.1v1.476a6.691 6.691 0 0 0 .988 3.506 4.843 4.843 0 0 0-2.824 4.394v1.338a4.846 4.846 0 0 0 4.84 4.84h7.77v2.483h-5.51a1.836 1.836 0 0 0-1.836 1.836v3.387H9.973V268.01a1.836 1.836 0 1 0-3.673 0v11.63h-.791a5.509 5.509 0 1 0 0 11.018h114.348a5.509 5.509 0 1 0 0-11.018zm-31.586-41.013a4.29 4.29 0 0 1 4.285-4.285h9.3a4.29 4.29 0 0 1 4.285 4.285v6.734h-17.87zm-12.978 10.406h44.564a1.838 1.838 0 0 1 1.836 1.836 1.842 1.842 0 0 1-1.836 1.836H75.293zm-57.12-10.406a4.29 4.29 0 0 1 4.285-4.285h9.3a4.29 4.29 0 0 1 4.285 4.285v6.734h-17.87zm31.9 14.079H5.509a1.838 1.838 0 0 1-1.836-1.836 1.842 1.842 0 0 1 1.836-1.836h44.564zm3.673-14.186a4.29 4.29 0 0 1 4.285-4.285h9.3a4.29 4.29 0 0 1 4.285 4.285v19.336a3.064 3.064 0 0 1-3.061 3.061H56.807a3.064 3.064 0 0 1-3.061-3.061zm-.669 29.742a1.169 1.169 0 0 1-1.167-1.167v-1.338a1.169 1.169 0 0 1 1.167-1.167h19.212a1.169 1.169 0 0 1 1.167 1.167v1.338a1.169 1.169 0 0 1-1.167 1.167zm4.1 9.828h11.015v1.551H57.174z" transform="translate(0 -230.562)"/>
            </g>
        </g>
    </g>
</svg>
