<svg xmlns="http://www.w3.org/2000/svg" width="106.754" height="90.086">
    <defs>
        <style>
            .cls-1{fill:#feffff}
        </style>
    </defs>
    <g id="parking" transform="translate(0 -39.97)">
        <g id="Group_13" data-name="Group 13" transform="translate(82.752 48.642)">
            <g id="Group_12" data-name="Group 12">
                <path id="Path_161" data-name="Path 161" class="cls-1" d="M403.367 81.562h-5.211a1.143 1.143 0 0 0-1.27 1.037V99.45c0 .7.83 1.063 1.685 1.063.83 0 1.685-.363 1.685-1.063v-6.014h2.9c3.422 0 6.092-1.633 6.092-5.885V87.4c.004-4.257-2.588-5.838-5.881-5.838zm2.515 6.248c0 2.022-1.037 2.981-2.722 2.981h-2.9v-6.273h2.9c1.685 0 2.722.959 2.722 2.981z" transform="translate(-396.886 -81.562)"/>
            </g>
        </g>
        <g id="Group_21" data-name="Group 21" transform="translate(12.924 86.171)">
            <g id="Group_20" data-name="Group 20">
                <path id="Path_165" data-name="Path 165" class="cls-1" d="M123.9 272.679a24.97 24.97 0 0 1-1.929-1.179l-10.059-6.8a18.33 18.33 0 0 0-10.3-3.153H83.149a18.282 18.282 0 0 0-12.985 5.364 24.647 24.647 0 0 1-6.043 4.421 3.956 3.956 0 0 0 1.824 7.468h6.295a1.521 1.521 0 1 0 0-3.042h-6.296a.915.915 0 0 1-.422-1.727 27.684 27.684 0 0 0 6.788-4.966 15.258 15.258 0 0 1 10.838-4.477h4.134v11.17H82.23a1.521 1.521 0 1 0 0 3.042h41.7a2.27 2.27 0 0 0 2.267-2.267 4.411 4.411 0 0 0-2.297-3.854zm-33.575 3.085v-11.17h11.288a15.3 15.3 0 0 1 8.6 2.631l10.059 6.8c.7.472 1.427.917 2.167 1.324a1.416 1.416 0 0 1 .472.419z" transform="translate(-61.987 -261.552)"/>
            </g>
        </g>
        <g id="Group_23" data-name="Group 23" transform="translate(38.811 105.736)">
            <g id="Group_22" data-name="Group 22">
                <path id="Path_166" data-name="Path 166" class="cls-1" d="M192.36 355.388h-4.7a1.521 1.521 0 1 0 0 3.042h4.7a1.521 1.521 0 1 0 0-3.042z" transform="translate(-186.142 -355.388)"/>
            </g>
        </g>
        <g id="Group_25" data-name="Group 25" transform="translate(0 39.97)">
            <g id="Group_24" data-name="Group 24">
                <path id="Path_167" data-name="Path 167" class="cls-1" d="m105.442 104.459-.48-.8a12.518 12.518 0 0 0-8.262-5.8l-3.926-.781v-19.9h10.161a3.8 3.8 0 0 0 3.794-3.794v-29.62a3.8 3.8 0 0 0-3.794-3.794H73.316a3.8 3.8 0 0 0-3.794 3.794V55a1.521 1.521 0 0 0 3.042 0V43.764a.753.753 0 0 1 .752-.752h29.618a.753.753 0 0 1 .752.752v29.618a.753.753 0 0 1-.752.752H73.316a.753.753 0 0 1-.752-.752v-8.5a1.521 1.521 0 1 0-3.042 0v8.5a3.8 3.8 0 0 0 3.794 3.794h11.522V95.5l-2.018-.4a21.443 21.443 0 0 1-7.3-3.452l-10.059-6.8A22.979 22.979 0 0 0 52.549 80.9H34.086a22.914 22.914 0 0 0-16.276 6.723 19.971 19.971 0 0 1-10.025 5.412l-2.185.457a7.077 7.077 0 0 0-5.6 6.9v14.729a4.454 4.454 0 0 0 2.643 4.067l6.057 2.689a10.083 10.083 0 0 0 19.61.828h50.507a10.082 10.082 0 0 0 19.413 0h2.885a5.646 5.646 0 0 0 5.639-5.639v-7.888a9.147 9.147 0 0 0-1.312-4.719zM87.88 77.176h1.852v19.3L87.88 96.1zm-64.293 47.775a7.047 7.047 0 0 1-11.394-7.91l.028-.063a6.939 6.939 0 0 1 .169-.336l.109-.2.079-.133c.035-.057.07-.114.107-.171s.067-.1.1-.152.068-.1.1-.149.083-.111.126-.166.065-.086.1-.129c.05-.062.1-.122.155-.183.03-.034.058-.07.089-.1q.116-.129.24-.253l.021-.022.048-.046c.07-.068.14-.136.211-.2l.057-.049a7.57 7.57 0 0 1 .216-.186l.021-.016a7.061 7.061 0 0 1 8.87.008l.009.007c.079.064.156.131.232.2l.041.036q.133.12.26.247c.092.092.18.186.266.282.038.042.073.085.11.128s.089.1.132.158.095.121.141.182l.077.1q.084.115.162.233l.026.04a7.059 7.059 0 0 1-.908 8.843zm69.92 0a7.048 7.048 0 0 1-10.881-8.842l.026-.039q.079-.118.163-.234c.025-.034.05-.068.076-.1l.141-.183c.048-.061.087-.1.131-.156s.073-.087.111-.129c.086-.1.174-.19.266-.282a7.047 7.047 0 0 1 9.967 0c.092.092.18.186.266.282.038.042.074.085.11.128s.089.1.132.157l.141.182.076.1c.056.077.11.154.162.233l.026.04a7.06 7.06 0 0 1-.913 8.843zm10.206-7.885a2.6 2.6 0 0 1-2.6 2.6h-2.5a9.962 9.962 0 0 0-2.239-6.036l-.028-.035a11.304 11.304 0 0 0-.268-.312l-.069-.08c-.1-.107-.2-.211-.3-.314-.017-.018-.033-.036-.051-.053a10.028 10.028 0 0 0-4.669-2.653 10.24 10.24 0 0 0-4.449-.108 10.019 10.019 0 0 0-5.15 2.761l-.05.052c-.1.1-.2.208-.3.315l-.067.077c-.092.1-.183.209-.27.315l-.026.033a9.965 9.965 0 0 0-2.241 6.038H28.691a9.964 9.964 0 0 0-2.247-6.045l-.019-.024a11.032 11.032 0 0 0-.284-.331l-.053-.061q-.17-.188-.351-.369a10.1 10.1 0 0 0-14.268 0 10.57 10.57 0 0 0-.327.344l-.093.1q-.113.127-.221.257l-.1.117q-.112.139-.218.281l-.066.088q-.286.391-.531.806l-.014.023q-.12.2-.23.412l-.006.012a10.026 10.026 0 0 0-1.05 3.232l-4.74-2.107a1.41 1.41 0 0 1-.837-1.288v-14.724a4.023 4.023 0 0 1 3.184-3.92l2.183-.457a23.007 23.007 0 0 0 11.548-6.234 19.891 19.891 0 0 1 14.136-5.838H52.55a19.949 19.949 0 0 1 11.207 3.431l10.059 6.8a24.253 24.253 0 0 0 8.411 3.915l13.88 2.76a9.47 9.47 0 0 1 6.25 4.391l.48.8a6.1 6.1 0 0 1 .875 3.148z" transform="translate(0 -39.97)"/>
            </g>
        </g>
        <g id="Group_27" data-name="Group 27" transform="translate(13.986 115.35)">
            <g id="Group_26" data-name="Group 26">
                <path id="Path_168" data-name="Path 168" class="cls-1" d="M74.962 402.852a4.617 4.617 0 1 0 0 6.529 4.587 4.587 0 0 0 0-6.529zm-2.151 4.379a1.576 1.576 0 1 1 0-2.228 1.565 1.565 0 0 1 0 2.228z" transform="translate(-67.08 -401.5)"/>
            </g>
        </g>
        <g id="Group_29" data-name="Group 29" transform="translate(83.908 115.35)">
            <g id="Group_28" data-name="Group 28">
                <path id="Path_169" data-name="Path 169" class="cls-1" d="M410.31 402.853a4.617 4.617 0 1 0 1.352 3.265 4.587 4.587 0 0 0-1.352-3.265zm-2.151 4.379a1.575 1.575 0 1 1 .462-1.114 1.565 1.565 0 0 1-.462 1.113z" transform="translate(-402.43 -401.5)"/>
            </g>
        </g>
    </g>
</svg>
