<svg xmlns="http://www.w3.org/2000/svg">
    <!-- Digikala Logo -->
    <symbol viewBox="0 0 212 50" id="logo">
        <path class="uk-preserve" fill="#f04e5f" d="M209.22,15.52A8.6,8.6,0,0,0,203.14,13h-9.93A1.21,1.21,0,0,0,192,14.21v3.58A1.21,1.21,0,0,0,193.21,19h10.08a2.67,2.67,0,0,1,1.92.8,2.73,2.73,0,0,1,.79,1.93v5.54a2.75,2.75,0,0,1-.79,1.93,2.67,2.67,0,0,1-1.92.8H193.21A1.21,1.21,0,0,0,192,31.21v3.58A1.21,1.21,0,0,0,193.21,36h10.26a8.36,8.36,0,0,0,6-2.6,9,9,0,0,0,2.5-6.26v-5.4a8.61,8.61,0,0,0-2.52-6.08"/>
        <path class="uk-preserve" fill="#f04e5f" d="M187,19h-2.79A1.21,1.21,0,0,0,183,20.21v7.06a2.71,2.71,0,0,1-.8,1.93,2.74,2.74,0,0,1-1.95.8H171V21h0a8.13,8.13,0,0,0-8.13-8h-9.16a1.23,1.23,0,0,0-1,.48l-3.11,4.12a.87.87,0,0,0,.69,1.4h11.89a2.77,2.77,0,0,1,2,.8,2.66,2.66,0,0,1,.82,1.9V30H142.21A1.21,1.21,0,0,0,141,31.21v3.52s.46,1.21,1.13,1.27h3.79a2.74,2.74,0,0,1-.8,1.65,14.36,14.36,0,0,1-2,1.35h-9.41a13.76,13.76,0,0,1-2-1.35,5,5,0,0,1-.79-2V25.21A1.21,1.21,0,0,0,129.79,24h-3.58A1.21,1.21,0,0,0,125,25.21v10a8.71,8.71,0,0,0,2.59,6.19A8.93,8.93,0,0,0,133.86,44h9.52a8.91,8.91,0,0,0,6.12-2.41A8.1,8.1,0,0,0,152,36h17.77A1.21,1.21,0,0,0,171,34.79v-1l1.4,1.77a1.21,1.21,0,0,0,.95.46h7a8.9,8.9,0,0,0,6.11-2.41A8.06,8.06,0,0,0,189,27.76V20.18A1.21,1.21,0,0,0,187.79,19"/>
        <path class="uk-preserve" fill="#f04e5f" d="M83,10.21A1.21,1.21,0,0,0,81.79,9H78.21A1.21,1.21,0,0,0,77,10.21v17a2.89,2.89,0,0,1-.8,2,2.62,2.62,0,0,1-1.92.83H63.21A1.21,1.21,0,0,0,62,31.21v3.58A1.21,1.21,0,0,0,63.21,36H74.45a8.43,8.43,0,0,0,6-2.58A9,9,0,0,0,83,27.19v-17Z"/>
        <path class="uk-preserve" fill="#f04e5f" d="M160,39h-3.79A1.21,1.21,0,0,0,155,40.21v2.58A1.21,1.21,0,0,0,156.21,44h3.58A1.21,1.21,0,0,0,161,42.79V40.16A1.21,1.21,0,0,0,159.75,39"/>
        <path class="uk-preserve" fill="#f04e5f" d="M184,39h-8.79A1.21,1.21,0,0,0,174,40.21v2.58A1.21,1.21,0,0,0,175.21,44h8.58A1.21,1.21,0,0,0,185,42.79V40.16A1.19,1.19,0,0,0,183.78,39"/>
        <path class="uk-preserve" fill="#f04e5f" d="M67.38,27h3.34a1.21,1.21,0,0,0,1.17-1.53l-4-14.58A1.21,1.21,0,0,0,66.75,10H63.41a1.21,1.21,0,0,0-1.17,1.53l4,14.58A1.21,1.21,0,0,0,67.38,27Z"/>
        <path class="uk-preserve" fill="#f04e5f" d="M110,13h-2.28l5.1-6.7a.81.81,0,0,0-.64-1.3h-4.59a1.21,1.21,0,0,0-1,.48L97.82,17.05a1.21,1.21,0,0,0,1,1.95h11.49A5.73,5.73,0,0,1,116,24.69V30H95.86A2.85,2.85,0,0,1,93,27.16V10.21A1.21,1.21,0,0,0,91.79,9H88.21A1.21,1.21,0,0,0,87,10.21V23h0v4.88a7.87,7.87,0,0,0,2.52,5.72A8.93,8.93,0,0,0,95.62,36H120.8a1.18,1.18,0,0,0,1.2-1V31h0V24.8a11.69,11.69,0,0,0-11.69-11.69"/>
        <path class="uk-preserve" fill="#f04f5f" d="M2.58,0A2.59,2.59,0,0,0,0,2.58V47.42A2.59,2.59,0,0,0,2.6,50H31.54A18.47,18.47,0,0,0,50,31.54V18.47A18.47,18.47,0,0,0,31.53,0Z"/>
        <path class="uk-preserve" fill="#ffffff" d="M25.27,31a18.35,18.35,0,0,1-14.12-6.64,1.4,1.4,0,0,1,.28-2l2.33-1.62a1.4,1.4,0,0,1,1.87.25,12.71,12.71,0,0,0,19.29,0,1.4,1.4,0,0,1,1.87-.25l2.33,1.62a1.4,1.4,0,0,1,.28,2A18.36,18.36,0,0,1,25.27,31"/>
    </symbol>
    <!-- Icons -->
    <symbol viewBox="0 0 16 16" id="arrow-left-short">
        <path d="M12 8a.5.5 0 0 1-.5.5H5.707l2.147 2.146a.5.5 0 0 1-.708.708l-3-3a.5.5 0 0 1 0-.708l3-3a.5.5 0 1 1 .708.708L5.707 7.5H11.5a.5.5 0 0 1 .5.5z" />
    </symbol>
    <symbol viewBox="0 0 16 16" id="person">
        <path d="M8 8a3 3 0 1 0 0-6 3 3 0 0 0 0 6zm2-3a2 2 0 1 1-4 0 2 2 0 0 1 4 0zm4 8c0 1-1 1-1 1H3s-1 0-1-1 1-4 6-4 6 3 6 4zm-1-.004c-.001-.246-.154-.986-.832-1.664C11.516 10.68 10.289 10 8 10c-2.29 0-3.516.68-4.168 1.332-.678.678-.83 1.418-.832 1.664h10z" />
    </symbol>
    <symbol viewBox="0 0 16 16" id="at">
        <path d="M13.106 7.222c0-2.967-2.249-5.032-5.482-5.032-3.35 0-5.646 2.318-5.646 5.702 0 3.493 2.235 5.708 5.762 5.708.862 0 1.689-.123 2.304-.335v-.862c-.43.199-1.354.328-2.29.328-2.926 0-4.813-1.88-4.813-4.798 0-2.844 1.921-4.881 4.594-4.881 2.735 0 4.608 1.688 4.608 4.156 0 1.682-.554 2.769-1.416 2.769-.492 0-.772-.28-.772-.76V5.206H8.923v.834h-.11c-.266-.595-.881-.964-1.6-.964-1.4 0-2.378 1.162-2.378 2.823 0 1.737.957 2.906 2.379 2.906.8 0 1.415-.39 1.709-1.087h.11c.081.67.703 1.148 1.503 1.148 1.572 0 2.57-1.415 2.57-3.643zm-7.177.704c0-1.197.54-1.907 1.456-1.907.93 0 1.524.738 1.524 1.907S8.308 9.84 7.371 9.84c-.895 0-1.442-.725-1.442-1.914z" />
    </symbol>
    <symbol viewBox="0 0 16 16" id="key">
        <path d="M0 8a4 4 0 0 1 7.465-2H14a.5.5 0 0 1 .354.146l1.5 1.5a.5.5 0 0 1 0 .708l-1.5 1.5a.5.5 0 0 1-.708 0L13 9.207l-.646.647a.5.5 0 0 1-.708 0L11 9.207l-.646.647a.5.5 0 0 1-.708 0L9 9.207l-.646.647A.5.5 0 0 1 8 10h-.535A4 4 0 0 1 0 8zm4-3a3 3 0 1 0 2.712 4.285A.5.5 0 0 1 7.163 9h.63l.853-.854a.5.5 0 0 1 .708 0l.646.647.646-.647a.5.5 0 0 1 .708 0l.646.647.646-.647a.5.5 0 0 1 .708 0l.646.647.793-.793-1-1h-6.63a.5.5 0 0 1-.451-.285A3 3 0 0 0 4 5z" />
        <path d="M4 8a1 1 0 1 1-2 0 1 1 0 0 1 2 0z" />
    </symbol>
    <symbol viewBox="0 0 16 16" id="save">
        <path d="M10.97 4.97a.75.75 0 0 1 1.07 1.05l-3.99 4.99a.75.75 0 0 1-1.08.02L4.324 8.384a.75.75 0 1 1 1.06-1.06l2.094 2.093 3.473-4.425a.267.267 0 0 1 .02-.022z" />
    </symbol>
    <symbol viewBox="0 0 16 16" id="plus">
        <path d="M8 4a.5.5 0 0 1 .5.5v3h3a.5.5 0 0 1 0 1h-3v3a.5.5 0 0 1-1 0v-3h-3a.5.5 0 0 1 0-1h3v-3A.5.5 0 0 1 8 4z"/>
    </symbol>
    <symbol viewBox="0 0 16 16" id="person-bounding-box">
        <path d="M1.5 1a.5.5 0 0 0-.5.5v3a.5.5 0 0 1-1 0v-3A1.5 1.5 0 0 1 1.5 0h3a.5.5 0 0 1 0 1h-3zM11 .5a.5.5 0 0 1 .5-.5h3A1.5 1.5 0 0 1 16 1.5v3a.5.5 0 0 1-1 0v-3a.5.5 0 0 0-.5-.5h-3a.5.5 0 0 1-.5-.5zM.5 11a.5.5 0 0 1 .5.5v3a.5.5 0 0 0 .5.5h3a.5.5 0 0 1 0 1h-3A1.5 1.5 0 0 1 0 14.5v-3a.5.5 0 0 1 .5-.5zm15 0a.5.5 0 0 1 .5.5v3a1.5 1.5 0 0 1-1.5 1.5h-3a.5.5 0 0 1 0-1h3a.5.5 0 0 0 .5-.5v-3a.5.5 0 0 1 .5-.5z"/>
        <path d="M3 14s-1 0-1-1 1-4 6-4 6 3 6 4-1 1-1 1H3zm8-9a3 3 0 1 1-6 0 3 3 0 0 1 6 0z"/>
    </symbol>
    <symbol viewBox="0 0 16 16" id="chevron-left">
        <path fill-rule="evenodd" d="M11.354 1.646a.5.5 0 0 1 0 .708L5.707 8l5.647 5.646a.5.5 0 0 1-.708.708l-6-6a.5.5 0 0 1 0-.708l6-6a.5.5 0 0 1 .708 0z" />
    </symbol>
    <symbol viewBox="0 0 16 16" id="chevron-right">
        <path fill-rule="evenodd" d="M4.646 1.646a.5.5 0 0 1 .708 0l6 6a.5.5 0 0 1 0 .708l-6 6a.5.5 0 0 1-.708-.708L10.293 8 4.646 2.354a.5.5 0 0 1 0-.708z" />
    </symbol>
    <symbol viewBox="0 0 16 16" id="x-square">
        <path d="M14 1a1 1 0 0 1 1 1v12a1 1 0 0 1-1 1H2a1 1 0 0 1-1-1V2a1 1 0 0 1 1-1h12zM2 0a2 2 0 0 0-2 2v12a2 2 0 0 0 2 2h12a2 2 0 0 0 2-2V2a2 2 0 0 0-2-2H2z" />
        <path d="M4.646 4.646a.5.5 0 0 1 .708 0L8 7.293l2.646-2.647a.5.5 0 0 1 .708.708L8.707 8l2.647 2.646a.5.5 0 0 1-.708.708L8 8.707l-2.646 2.647a.5.5 0 0 1-.708-.708L7.293 8 4.646 5.354a.5.5 0 0 1 0-.708z" />
    </symbol>
    <symbol viewBox="0 0 16 16" id="clipboard-plus">
        <path fill-rule="evenodd" d="M8 7a.5.5 0 0 1 .5.5V9H10a.5.5 0 0 1 0 1H8.5v1.5a.5.5 0 0 1-1 0V10H6a.5.5 0 0 1 0-1h1.5V7.5A.5.5 0 0 1 8 7z"/>
        <path d="M4 1.5H3a2 2 0 0 0-2 2V14a2 2 0 0 0 2 2h10a2 2 0 0 0 2-2V3.5a2 2 0 0 0-2-2h-1v1h1a1 1 0 0 1 1 1V14a1 1 0 0 1-1 1H3a1 1 0 0 1-1-1V3.5a1 1 0 0 1 1-1h1v-1z"/>
        <path d="M9.5 1a.5.5 0 0 1 .5.5v1a.5.5 0 0 1-.5.5h-3a.5.5 0 0 1-.5-.5v-1a.5.5 0 0 1 .5-.5h3zm-3-1A1.5 1.5 0 0 0 5 1.5v1A1.5 1.5 0 0 0 6.5 4h3A1.5 1.5 0 0 0 11 2.5v-1A1.5 1.5 0 0 0 9.5 0h-3z"/>
    </symbol>
    <symbol viewBox="0 0 16 16" id="caret-down-square">
        <path d="M3.626 6.832A.5.5 0 0 1 4 6h8a.5.5 0 0 1 .374.832l-4 4.5a.5.5 0 0 1-.748 0l-4-4.5z" />
        <path d="M0 2a2 2 0 0 1 2-2h12a2 2 0 0 1 2 2v12a2 2 0 0 1-2 2H2a2 2 0 0 1-2-2V2zm15 0a1 1 0 0 0-1-1H2a1 1 0 0 0-1 1v12a1 1 0 0 0 1 1h12a1 1 0 0 0 1-1V2z" />
    </symbol>
    <symbol viewBox="0 0 16 16" id="receipt-cutoff">
        <path d="M3 4.5a.5.5 0 0 1 .5-.5h6a.5.5 0 1 1 0 1h-6a.5.5 0 0 1-.5-.5zm0 2a.5.5 0 0 1 .5-.5h6a.5.5 0 1 1 0 1h-6a.5.5 0 0 1-.5-.5zm0 2a.5.5 0 0 1 .5-.5h6a.5.5 0 1 1 0 1h-6a.5.5 0 0 1-.5-.5zm0 2a.5.5 0 0 1 .5-.5h6a.5.5 0 0 1 0 1h-6a.5.5 0 0 1-.5-.5zm0 2a.5.5 0 0 1 .5-.5h6a.5.5 0 0 1 0 1h-6a.5.5 0 0 1-.5-.5zM11.5 4a.5.5 0 0 0 0 1h1a.5.5 0 0 0 0-1h-1zm0 2a.5.5 0 0 0 0 1h1a.5.5 0 0 0 0-1h-1zm0 2a.5.5 0 0 0 0 1h1a.5.5 0 0 0 0-1h-1zm0 2a.5.5 0 0 0 0 1h1a.5.5 0 0 0 0-1h-1zm0 2a.5.5 0 0 0 0 1h1a.5.5 0 0 0 0-1h-1z" />
        <path d="M2.354.646a.5.5 0 0 0-.801.13l-.5 1A.5.5 0 0 0 1 2v13H.5a.5.5 0 0 0 0 1h15a.5.5 0 0 0 0-1H15V2a.5.5 0 0 0-.053-.224l-.5-1a.5.5 0 0 0-.8-.13L13 1.293l-.646-.647a.5.5 0 0 0-.708 0L11 1.293l-.646-.647a.5.5 0 0 0-.708 0L9 1.293 8.354.646a.5.5 0 0 0-.708 0L7 1.293 6.354.646a.5.5 0 0 0-.708 0L5 1.293 4.354.646a.5.5 0 0 0-.708 0L3 1.293 2.354.646zm-.217 1.198.51.51a.5.5 0 0 0 .707 0L4 1.707l.646.647a.5.5 0 0 0 .708 0L6 1.707l.646.647a.5.5 0 0 0 .708 0L8 1.707l.646.647a.5.5 0 0 0 .708 0L10 1.707l.646.647a.5.5 0 0 0 .708 0L12 1.707l.646.647a.5.5 0 0 0 .708 0l.509-.51.137.274V15H2V2.118l.137-.274z" />
    </symbol>
    <symbol viewBox="0 0 16 16" id="list">
        <path fill-rule="evenodd" d="M2.5 12a.5.5 0 0 1 .5-.5h10a.5.5 0 0 1 0 1H3a.5.5 0 0 1-.5-.5zm0-4a.5.5 0 0 1 .5-.5h10a.5.5 0 0 1 0 1H3a.5.5 0 0 1-.5-.5zm0-4a.5.5 0 0 1 .5-.5h10a.5.5 0 0 1 0 1H3a.5.5 0 0 1-.5-.5z" />
    </symbol>
    <symbol viewBox="0 0 16 16" id="power">
        <path d="M7.5 1v7h1V1h-1z" />
        <path d="M3 8.812a4.999 4.999 0 0 1 2.578-4.375l-.485-.874A6 6 0 1 0 11 3.616l-.501.865A5 5 0 1 1 3 8.812z" />
    </symbol>
    <symbol viewBox="0 0 16 16" id="check">
        <path d="M13.854 3.646a.5.5 0 0 1 0 .708l-7 7a.5.5 0 0 1-.708 0l-3.5-3.5a.5.5 0 1 1 .708-.708L6.5 10.293l6.646-6.647a.5.5 0 0 1 .708 0z" />
    </symbol>
    <symbol viewBox="0 0 16 16" id="pencil">
        <path d="M12.146.146a.5.5 0 0 1 .708 0l3 3a.5.5 0 0 1 0 .708l-10 10a.5.5 0 0 1-.168.11l-5 2a.5.5 0 0 1-.65-.65l2-5a.5.5 0 0 1 .11-.168l10-10zM11.207 2.5 13.5 4.793 14.793 3.5 12.5 1.207 11.207 2.5zm1.586 3L10.5 3.207 4 9.707V10h.5a.5.5 0 0 1 .5.5v.5h.5a.5.5 0 0 1 .5.5v.5h.293l6.5-6.5zm-9.761 5.175-.106.106-1.528 3.821 3.821-1.528.106-.106A.5.5 0 0 1 5 12.5V12h-.5a.5.5 0 0 1-.5-.5V11h-.5a.5.5 0 0 1-.468-.325z" />
    </symbol>
    <symbol viewBox="0 0 16 16" id="arrow-left-circle-fill">
        <path d="M8 0a8 8 0 1 0 0 16A8 8 0 0 0 8 0zm3.5 7.5a.5.5 0 0 1 0 1H5.707l2.147 2.146a.5.5 0 0 1-.708.708l-3-3a.5.5 0 0 1 0-.708l3-3a.5.5 0 1 1 .708.708L5.707 7.5H11.5z" />
    </symbol>
    <symbol viewBox="0 0 16 16" id="arrow-right-circle-fill">
        <path d="M8 0a8 8 0 1 1 0 16A8 8 0 0 1 8 0zM4.5 7.5a.5.5 0 0 0 0 1h5.793l-2.147 2.146a.5.5 0 0 0 .708.708l3-3a.5.5 0 0 0 0-.708l-3-3a.5.5 0 1 0-.708.708L10.293 7.5H4.5z" />
    </symbol>
    <symbol viewBox="0 0 16 16" id="x-lg">
        <path d="M1.293 1.293a1 1 0 0 1 1.414 0L8 6.586l5.293-5.293a1 1 0 1 1 1.414 1.414L9.414 8l5.293 5.293a1 1 0 0 1-1.414 1.414L8 9.414l-5.293 5.293a1 1 0 0 1-1.414-1.414L6.586 8 1.293 2.707a1 1 0 0 1 0-1.414z"/>
    </symbol>
    <!-- Services -->
    <symbol viewBox="0 0 125.37 107.74" id="MEETING_ROOMS">
        <path d="M62.68,0A12.86,12.86,0,1,0,75.54,12.86h0A12.87,12.87,0,0,0,62.68,0Zm0,22a9.19,9.19,0,1,1,9.19-9.18A9.18,9.18,0,0,1,62.68,22Z" transform="translate(0)"/>
        <path d="M68.07,11H64.52V7.47a1.84,1.84,0,1,0-3.67,0h0v5.39a1.83,1.83,0,0,0,1.83,1.83h5.39a1.84,1.84,0,1,0,0-3.67Z" transform="translate(0)"/>
        <path d="M119.86,96.72h-.79V93a1.84,1.84,0,0,0-3.68,0v3.76H86.15a1.84,1.84,0,1,0,0,3.67h33.71a1.84,1.84,0,0,1,0,3.67H5.51a1.84,1.84,0,1,1,0-3.67h72.8a1.84,1.84,0,1,0,0-3.67H71.87V93.33A1.84,1.84,0,0,0,70,91.5H64.52V89h7.77a4.84,4.84,0,0,0,4.84-4.84V82.83a4.84,4.84,0,0,0-2.82-4.39,6.76,6.76,0,0,0,1-3.51V73.46h40.1V85.09a1.84,1.84,0,0,0,3.68,0V73.46h.79a5.51,5.51,0,1,0,0-11h-10V55.7a8,8,0,0,0-8-8h-9.3a8,8,0,0,0-8,8v6.74H75.3V55.6a8,8,0,0,0-8-8H58a8,8,0,0,0-7.95,8v6.84H39.72V55.71a8,8,0,0,0-8-8h-9.3a8,8,0,0,0-8,8v6.73h-9a5.51,5.51,0,0,0,0,11H6.3v3.87a1.84,1.84,0,1,0,3.67,0V73.46h40.1v1.47a6.7,6.7,0,0,0,1,3.51,4.83,4.83,0,0,0-2.82,4.39v1.34A4.84,4.84,0,0,0,53.08,89h7.77v2.48H55.34a1.84,1.84,0,0,0-1.84,1.84v3.39H10V85.09a1.84,1.84,0,1,0-3.67,0V96.72H5.51a5.51,5.51,0,0,0,0,11H119.86a5.51,5.51,0,0,0,0-11Zm-31.59-41a4.29,4.29,0,0,1,4.29-4.29h9.3a4.29,4.29,0,0,1,4.28,4.29v6.73H88.27Zm-13,10.4h44.57a1.84,1.84,0,0,1,0,3.67H75.29ZM18.17,55.71a4.3,4.3,0,0,1,4.29-4.29h9.3A4.29,4.29,0,0,1,36,55.71v6.73H18.17Zm31.9,14.07H5.51A1.84,1.84,0,0,1,3.67,68a1.86,1.86,0,0,1,1.84-1.84H50.07ZM53.75,55.6A4.29,4.29,0,0,1,58,51.31h9.3a4.3,4.3,0,0,1,4.29,4.29V74.93A3.09,3.09,0,0,1,68.56,78H56.81a3.07,3.07,0,0,1-3.06-3.07Zm-.67,29.74a1.17,1.17,0,0,1-1.17-1.17V82.83a1.16,1.16,0,0,1,1.17-1.16H72.29a1.18,1.18,0,0,1,1.17,1.16v1.34a1.18,1.18,0,0,1-1.17,1.17Zm4.1,9.83h11v1.55h-11Z" transform="translate(0)"/>
    </symbol>
    <symbol viewBox="0 0 106.75 90.09" id="PARKINGS">
        <path d="M89.23,8.67H84a1.14,1.14,0,0,0-1.26,1V26.56c0,.7.83,1.06,1.69,1.06s1.68-.36,1.68-1.06v-6H89c3.42,0,6.09-1.64,6.09-5.89v-.15C95.12,10.25,92.53,8.67,89.23,8.67Zm2.52,6.25c0,2-1,3-2.72,3h-2.9V11.63H89c1.68,0,2.72,1,2.72,3Z" transform="translate(0 0)"/>
        <path d="M74.84,57.33c-.66-.37-1.31-.76-1.93-1.18l-10.06-6.8a18.28,18.28,0,0,0-10.3-3.15H34.09a18.24,18.24,0,0,0-13,5.36,24.78,24.78,0,0,1-6,4.42,4,4,0,0,0,1.82,7.47h6.3a1.52,1.52,0,0,0,0-3h-6.3a.92.92,0,0,1-.42-1.73,27.6,27.6,0,0,0,6.79-5,15.27,15.27,0,0,1,10.84-4.47h4.13V60.41h-5a1.52,1.52,0,1,0,0,3H74.87a2.27,2.27,0,0,0,2.26-2.27,4.38,4.38,0,0,0-2.29-3.85ZM41.26,60.41V49.24H52.55a15.39,15.39,0,0,1,8.6,2.63l10.06,6.8c.7.48,1.43.92,2.17,1.33a1.44,1.44,0,0,1,.47.42Z" transform="translate(0 0)"/>
        <path d="M45,65.77h-4.7a1.52,1.52,0,1,0,0,3H45a1.52,1.52,0,0,0,0-3Z" transform="translate(0 0)"/>
        <path d="M105.44,64.49l-.48-.8a12.51,12.51,0,0,0-8.26-5.8l-3.93-.78V37.21h10.16a3.8,3.8,0,0,0,3.8-3.8V3.79A3.8,3.8,0,0,0,102.93,0H73.32a3.8,3.8,0,0,0-3.8,3.79V15a1.52,1.52,0,1,0,3,0V3.79A.76.76,0,0,1,73.32,3h29.61a.76.76,0,0,1,.76.75V33.41a.75.75,0,0,1-.76.75H73.32a.75.75,0,0,1-.76-.75v-8.5a1.52,1.52,0,1,0-3,0h0v8.5a3.81,3.81,0,0,0,3.8,3.8H84.84V55.53l-2-.4a21.5,21.5,0,0,1-7.3-3.45l-10.06-6.8a23,23,0,0,0-12.91-4H34.09a22.89,22.89,0,0,0-16.28,6.72,20.05,20.05,0,0,1-10,5.42l-2.18.45A7.08,7.08,0,0,0,0,60.42V75.15a4.47,4.47,0,0,0,2.64,4.07L8.7,81.91a10.08,10.08,0,0,0,19.61.83H78.82a10.08,10.08,0,0,0,19.41,0h2.89a5.64,5.64,0,0,0,5.63-5.64V69.21A9.1,9.1,0,0,0,105.44,64.49ZM87.88,37.21h1.85v19.3l-1.85-.38ZM23.59,85a7.05,7.05,0,0,1-11.4-7.91l0-.06a3.59,3.59,0,0,1,.17-.34l.11-.2.08-.13.1-.17.1-.15.1-.15L13,75.7l.1-.13.16-.18.08-.1.24-.25,0,0,0,0a2.09,2.09,0,0,1,.22-.2l0,0,.22-.19h0a7,7,0,0,1,8.87,0h0l.23.2,0,0a3.07,3.07,0,0,1,.26.25l.27.28.11.13.13.15.14.19.08.1.16.23,0,0A7.07,7.07,0,0,1,23.59,85Zm69.92,0a7,7,0,0,1-10.88-8.84l0,0a2,2,0,0,1,.17-.23.86.86,0,0,1,.07-.1l.14-.19.13-.15.11-.13.27-.28a7,7,0,0,1,10,0h0a3.45,3.45,0,0,1,.26.28.69.69,0,0,1,.11.13l.13.15.15.18.07.1c.06.08.11.16.16.24l0,0A7.07,7.07,0,0,1,93.51,85Zm10.2-7.88a2.6,2.6,0,0,1-2.6,2.6h-2.5a9.88,9.88,0,0,0-2.24-6l0,0-.27-.31L96,73.23l-.3-.31s0,0,0,0A10,10,0,0,0,91,70.21a10.28,10.28,0,0,0-4.45-.11,10,10,0,0,0-5.15,2.77l0,0-.3.31-.07.08-.27.32,0,0a9.88,9.88,0,0,0-2.24,6H28.69a10,10,0,0,0-2.25-6v0c-.1-.12-.19-.23-.29-.33l-.05-.06-.35-.37a10.09,10.09,0,0,0-14.27,0l-.33.34-.09.1a2.75,2.75,0,0,0-.22.26l-.1.11-.22.28-.07.09c-.19.26-.36.53-.53.81v0c-.08.14-.16.27-.23.41v0a10.2,10.2,0,0,0-1.05,3.23L3.87,76.43A1.41,1.41,0,0,1,3,75.14V60.42A4,4,0,0,1,6.22,56.5L8.4,56A23,23,0,0,0,20,49.81,19.9,19.9,0,0,1,34.09,44H52.55A20,20,0,0,1,63.76,47.4l10.06,6.8a24.25,24.25,0,0,0,8.41,3.92l13.88,2.76a9.48,9.48,0,0,1,6.25,4.39l.48.8a6.12,6.12,0,0,1,.87,3.15Z" transform="translate(0 0)"/>
        <path d="M21.87,76.73a4.62,4.62,0,1,0,0,6.53h0a4.59,4.59,0,0,0,0-6.49Zm-2.15,4.38a1.58,1.58,0,1,1-2.23-2.23,1.59,1.59,0,0,1,2.23,0h0a1.58,1.58,0,0,1,0,2.22Z" transform="translate(0 0)"/>
        <path d="M91.79,76.73A4.62,4.62,0,1,0,93.14,80,4.62,4.62,0,0,0,91.79,76.73Zm-2.15,4.38a1.58,1.58,0,0,1-2.23-2.23,1.59,1.59,0,0,1,2.23,0A1.62,1.62,0,0,1,90.1,80a1.57,1.57,0,0,1-.46,1.11Z" transform="translate(0 0)"/>
    </symbol>
    <symbol viewBox="0 0 173 100" id="TABLES">
        <path d="M167.44,60.92l5.42-29.83a8,8,0,1,0-15.62-3l0,.13-2.64,14.53a2.53,2.53,0,1,0,5,1s0-.06,0-.09l2.63-14.53a2.89,2.89,0,0,1,5.68,1L162.46,60a2.9,2.9,0,0,1-2.84,2.37H143.5l-.58-5.78H155.1a2.54,2.54,0,0,0,.12-5.07H142.41l-1.93-19.42A2.55,2.55,0,0,0,138,29.84h-7.58l1.92-7.69a2.53,2.53,0,0,0-1.84-3.08,2.55,2.55,0,0,0-.61-.08h-19a2.54,2.54,0,0,0-2.53,2.54,2.2,2.2,0,0,0,.08.62l1.92,7.69H95.66l4-10.08a2.53,2.53,0,0,0-2.35-3.48H95.57a10.66,10.66,0,1,0-18.14,0H75.67a2.54,2.54,0,0,0-2.54,2.54,2.75,2.75,0,0,0,.18.94l4,10.08H62.66l1.93-7.69a2.54,2.54,0,0,0-1.84-3.08,2.57,2.57,0,0,0-.62-.08h-19a2.54,2.54,0,0,0-2.53,2.54,2.56,2.56,0,0,0,.07.62l1.93,7.69H35.05a2.54,2.54,0,0,0-2.53,2.29L30.59,51.54H17.9a2.54,2.54,0,0,0-.12,5.08h12.3l-.58,5.77H13.38A2.89,2.89,0,0,1,10.54,60L5.13,30.18a2.89,2.89,0,0,1,5.61-1.37,1.86,1.86,0,0,1,.06.34l2.64,14.53a2.53,2.53,0,1,0,5-.82s0-.06,0-.09L15.79,28.24A8,8,0,1,0,.12,31s0,.09,0,.13L5.56,60.92a7.88,7.88,0,0,0,2.53,4.51L5.44,97.25A2.53,2.53,0,0,0,7.75,100H8a2.54,2.54,0,0,0,2.52-2.33L13,67.44l.37,0H29l-1.9,18.9a2.54,2.54,0,0,0,2.27,2.78h.25a12.89,12.89,0,0,0,8.65-3.23c.46-.35.88-.67,1.31-1l1.06,12.71A2.54,2.54,0,0,0,43.16,100h.21a2.55,2.55,0,0,0,2.32-2.74l-1.13-13.5a8.1,8.1,0,0,1,4.85,2.17,13.16,13.16,0,0,0,17.28,0,8.18,8.18,0,0,1,11.14,0,13.49,13.49,0,0,0,6.13,3v6H70.25a2.54,2.54,0,0,0,0,5.08h32.5a2.54,2.54,0,0,0,0-5.08H89v-6a13.58,13.58,0,0,0,6.09-3,8.18,8.18,0,0,1,11.14,0,13.18,13.18,0,0,0,17.29,0,8.12,8.12,0,0,1,4.87-2.17l-1.12,13.5a2.52,2.52,0,0,0,2.31,2.73h.22a2.53,2.53,0,0,0,2.52-2.32L133.41,85c.42.28.85.6,1.3,1a12.89,12.89,0,0,0,8.66,3.23,2.53,2.53,0,0,0,2.53-2.53,2.26,2.26,0,0,0,0-.26L144,67.45h15.61l.38,0,2.52,30.23A2.53,2.53,0,0,0,165,100h.21a2.54,2.54,0,0,0,2.32-2.74l-2.65-31.82a8,8,0,0,0,2.53-4.51Zm-29.64,21a13.21,13.21,0,0,0-17.3,0,8.18,8.18,0,0,1-11.16,0,13.2,13.2,0,0,0-17.29,0,8.15,8.15,0,0,1-11.13,0,13.2,13.2,0,0,0-17.29,0,8.16,8.16,0,0,1-11.14,0,13.19,13.19,0,0,0-17.28,0,11.37,11.37,0,0,1-2.72,1.72l4.86-48.69h98.32l4.86,48.69A11.23,11.23,0,0,1,137.8,81.88Z" transform="translate(0 0)"/>
    </symbol>
</svg>