<svg xmlns="http://www.w3.org/2000/svg">
    <!-- Icons -->
    <symbol viewBox="0 0 16 16" id="arrow-left-short">
        <path d="M12 8a.5.5 0 0 1-.5.5H5.707l2.147 2.146a.5.5 0 0 1-.708.708l-3-3a.5.5 0 0 1 0-.708l3-3a.5.5 0 1 1 .708.708L5.707 7.5H11.5a.5.5 0 0 1 .5.5z" />
    </symbol>
    <symbol viewBox="0 0 16 16" id="person">
        <path d="M8 8a3 3 0 1 0 0-6 3 3 0 0 0 0 6zm2-3a2 2 0 1 1-4 0 2 2 0 0 1 4 0zm4 8c0 1-1 1-1 1H3s-1 0-1-1 1-4 6-4 6 3 6 4zm-1-.004c-.001-.246-.154-.986-.832-1.664C11.516 10.68 10.289 10 8 10c-2.29 0-3.516.68-4.168 1.332-.678.678-.83 1.418-.832 1.664h10z" />
    </symbol>
    <symbol viewBox="0 0 16 16" id="at">
        <path d="M13.106 7.222c0-2.967-2.249-5.032-5.482-5.032-3.35 0-5.646 2.318-5.646 5.702 0 3.493 2.235 5.708 5.762 5.708.862 0 1.689-.123 2.304-.335v-.862c-.43.199-1.354.328-2.29.328-2.926 0-4.813-1.88-4.813-4.798 0-2.844 1.921-4.881 4.594-4.881 2.735 0 4.608 1.688 4.608 4.156 0 1.682-.554 2.769-1.416 2.769-.492 0-.772-.28-.772-.76V5.206H8.923v.834h-.11c-.266-.595-.881-.964-1.6-.964-1.4 0-2.378 1.162-2.378 2.823 0 1.737.957 2.906 2.379 2.906.8 0 1.415-.39 1.709-1.087h.11c.081.67.703 1.148 1.503 1.148 1.572 0 2.57-1.415 2.57-3.643zm-7.177.704c0-1.197.54-1.907 1.456-1.907.93 0 1.524.738 1.524 1.907S8.308 9.84 7.371 9.84c-.895 0-1.442-.725-1.442-1.914z" />
    </symbol>
    <symbol viewBox="0 0 16 16" id="key">
        <path d="M0 8a4 4 0 0 1 7.465-2H14a.5.5 0 0 1 .354.146l1.5 1.5a.5.5 0 0 1 0 .708l-1.5 1.5a.5.5 0 0 1-.708 0L13 9.207l-.646.647a.5.5 0 0 1-.708 0L11 9.207l-.646.647a.5.5 0 0 1-.708 0L9 9.207l-.646.647A.5.5 0 0 1 8 10h-.535A4 4 0 0 1 0 8zm4-3a3 3 0 1 0 2.712 4.285A.5.5 0 0 1 7.163 9h.63l.853-.854a.5.5 0 0 1 .708 0l.646.647.646-.647a.5.5 0 0 1 .708 0l.646.647.646-.647a.5.5 0 0 1 .708 0l.646.647.793-.793-1-1h-6.63a.5.5 0 0 1-.451-.285A3 3 0 0 0 4 5z" />
        <path d="M4 8a1 1 0 1 1-2 0 1 1 0 0 1 2 0z" />
    </symbol>
    <symbol viewBox="0 0 16 16" id="save">
        <path d="M10.97 4.97a.75.75 0 0 1 1.07 1.05l-3.99 4.99a.75.75 0 0 1-1.08.02L4.324 8.384a.75.75 0 1 1 1.06-1.06l2.094 2.093 3.473-4.425a.267.267 0 0 1 .02-.022z" />
    </symbol>
    <symbol viewBox="0 0 16 16" id="person-bounding-box">
        <path d="M1.5 1a.5.5 0 0 0-.5.5v3a.5.5 0 0 1-1 0v-3A1.5 1.5 0 0 1 1.5 0h3a.5.5 0 0 1 0 1h-3zM11 .5a.5.5 0 0 1 .5-.5h3A1.5 1.5 0 0 1 16 1.5v3a.5.5 0 0 1-1 0v-3a.5.5 0 0 0-.5-.5h-3a.5.5 0 0 1-.5-.5zM.5 11a.5.5 0 0 1 .5.5v3a.5.5 0 0 0 .5.5h3a.5.5 0 0 1 0 1h-3A1.5 1.5 0 0 1 0 14.5v-3a.5.5 0 0 1 .5-.5zm15 0a.5.5 0 0 1 .5.5v3a1.5 1.5 0 0 1-1.5 1.5h-3a.5.5 0 0 1 0-1h3a.5.5 0 0 0 .5-.5v-3a.5.5 0 0 1 .5-.5z"/>
        <path d="M3 14s-1 0-1-1 1-4 6-4 6 3 6 4-1 1-1 1H3zm8-9a3 3 0 1 1-6 0 3 3 0 0 1 6 0z"/>
    </symbol>
</svg>